<svg xmlns="http://www.w3.org/2000/svg" xmlns:xlink="http://www.w3.org/1999/xlink" viewBox="0 0 100 100"><defs><style>.cls-1{fill:none;}.cls-2{fill:#dd5877;}.cls-3{clip-path:url(#clip-path);}.cls-4{fill:#f7eada;}.cls-5{fill:#a7654f;}.cls-6{fill:#fff;}.cls-7{fill:#191009;}.cls-8{fill:#26232c;}</style><clipPath id="clip-path"><path class="cls-1" d="M89.14,49.71A39.14,39.14,0,1,0,50,88.86,39.14,39.14,0,0,0,89.14,49.71Z"/></clipPath></defs><title>Artboard 1 copy 4avatar</title><g id="Objects"><path class="cls-2" d="M89.14,49.71A39.14,39.14,0,1,0,50,88.86,39.14,39.14,0,0,0,89.14,49.71Z"/><g class="cls-3"><path class="cls-4" d="M71,63.08c0-15.25-9.71-27.61-21.68-27.61S27.65,47.83,27.65,63.08s9.71,27.61,21.69,27.61S71,78.33,71,63.08Z"/><path class="cls-5" d="M63.37,44c0-7.33-12-8.62-12-8.62H47.28s-12,1.29-12,8.62-.13,16.1,3.48,22.54,3.09,15.45,10.56,16c7.47-.51,6.95-9.52,10.56-16S63.37,51.32,63.37,44Z"/><path class="cls-6" d="M58.11,31.22s10.07-2.3,9.3-10c3.35,6.83-1.68,12.11-5.92,15.2"/><path class="cls-6" d="M40.5,31.22s-10.07-2.3-9.3-10C27.85,28,32.87,33.3,37.12,36.39"/><path class="cls-5" d="M60.27,38.6S65.36,32.23,73.53,34c-1,4.19-3.73,8-10.3,9.6"/><path class="cls-4" d="M61.57,40.17s5.24-4.65,9.45-3.76c-.53,2.16-4.75,6-8.13,6.81"/><path class="cls-5" d="M38.28,38.6S33.2,32.23,25,34c1,4.19,3.74,8,10.3,9.6"/><path class="cls-4" d="M37,40.17s-5.25-4.65-9.46-3.76c.53,2.16,4.76,6,8.14,6.81"/><path class="cls-6" d="M53.2,61.17c0-6.43.19-12.55,5.6-17.86s3.8-9.37.65-12.17-7.79-2.32-10.11-2.32-7-.48-10.11,2.32-4.76,6.86.64,12.17,5.61,11.43,5.61,17.86c0,5-3.22,7.86-5.22,10.11S39.39,78,41.71,78H57c2.32,0,3.44-4.44,1.44-6.7S53.2,66.15,53.2,61.17Z"/><path class="cls-6" d="M61.65,48.23s-5.7-1.65-5.57,4.14c0,0,5.57,2,5.57-4.14"/><path class="cls-7" d="M57,50a1.38,1.38,0,1,0,1.38-1.38A1.38,1.38,0,0,0,57,50Z"/><path class="cls-6" d="M57.72,49.9a.32.32,0,0,0,.33.32.32.32,0,0,0,.32-.32.32.32,0,0,0-.32-.33A.33.33,0,0,0,57.72,49.9Z"/><path class="cls-6" d="M36.82,48.23s5.7-1.65,5.57,4.14c0,0-5.57,2-5.57-4.14"/><path class="cls-7" d="M41.47,50a1.38,1.38,0,1,1-1.38-1.38A1.38,1.38,0,0,1,41.47,50Z"/><path class="cls-6" d="M40.74,49.9a.33.33,0,0,1-.65,0,.33.33,0,1,1,.65,0Z"/><path class="cls-8" d="M49.08,77.86a6.19,6.19,0,0,0-4.95,0c-2.41,1.21-4.65,3.32-6,.42,0,0-.06,4.53,5.5,4S49.32,78.59,49.08,77.86Z"/><path class="cls-8" d="M49.2,77.86a6.19,6.19,0,0,1,4.95,0c2.42,1.21,4.65,3.32,6,.42,0,0,.06,4.53-5.49,4S49,78.59,49.2,77.86Z"/></g></g></svg>