<svg xmlns="http://www.w3.org/2000/svg" xmlns:xlink="http://www.w3.org/1999/xlink" viewBox="0 0 100 100"><defs><style>.cls-1{fill:none;}.cls-2{fill:#f9b44d;}.cls-3{clip-path:url(#clip-path);}.cls-4{fill:#191009;}.cls-5{fill:#434345;}.cls-6{fill:#3e3d42;}.cls-7{fill:#fcfcfc;}.cls-8{fill:#4e4741;}.cls-9{fill:#e3e1e2;}</style><clipPath id="clip-path"><path class="cls-1" d="M88.76,50A39.15,39.15,0,1,0,49.61,89.14,39.14,39.14,0,0,0,88.76,50Z"/></clipPath></defs><title>Artboard 1 copy 8avatar</title><g id="Objects"><path class="cls-2" d="M88.76,50A39.15,39.15,0,1,0,49.61,89.14,39.14,39.14,0,0,0,88.76,50Z"/><g class="cls-3"><path class="cls-4" d="M49.61,64.48c-13,0-23.44,11-23.44,24.66H73.06C73.06,75.52,62.56,64.48,49.61,64.48Z"/><polygon class="cls-5" points="39.3 66.57 49.61 89.14 60.72 67.42 67.62 68.89 61.33 75.54 65.01 76.81 49.61 89.14 37.98 79.72 40.86 76.81 33.78 69.7 39.3 66.57"/><path class="cls-4" d="M40.86,35.27a4.48,4.48,0,1,0-4.48,4.48A4.49,4.49,0,0,0,40.86,35.27Z"/><path class="cls-4" d="M67.25,35.27a4.48,4.48,0,1,0-4.48,4.48A4.48,4.48,0,0,0,67.25,35.27Z"/><path class="cls-6" d="M65,36a3,3,0,1,0-3,3A3,3,0,0,0,65,36Z"/><path class="cls-6" d="M39.92,36a3,3,0,1,0-3,3A3,3,0,0,0,39.92,36Z"/><path class="cls-7" d="M68.76,51.76A19.18,19.18,0,1,0,49.58,70.94,19.18,19.18,0,0,0,68.76,51.76Z"/><path class="cls-4" d="M48.38,50.9c1.36-3.24-1.78-7.28-5.88-6.54s-8.57,9.62-6,12.3S46.52,55.35,48.38,50.9Z"/><path class="cls-8" d="M45.33,50.08a1.69,1.69,0,1,0-1.69,1.68A1.69,1.69,0,0,0,45.33,50.08Z"/><path class="cls-9" d="M44.46,50.08a.82.82,0,1,0-.82.82A.83.83,0,0,0,44.46,50.08Z"/><path class="cls-4" d="M50.72,50.9c-1.35-3.24,1.79-7.28,5.89-6.54s8.57,9.62,6,12.3S52.59,55.35,50.72,50.9Z"/><path class="cls-8" d="M53.78,50.08a1.69,1.69,0,1,1,1.69,1.68A1.68,1.68,0,0,1,53.78,50.08Z"/><path class="cls-9" d="M54.64,50.08a.83.83,0,1,1,.83.82A.83.83,0,0,1,54.64,50.08Z"/><path class="cls-4" d="M50.8,57.86c1.44,0,1.89.93,1,2.06l-.57.73a2,2,0,0,1-3.24,0l-.56-.73c-.89-1.13-.44-2.06,1-2.06Z"/><path class="cls-4" d="M45.2,62.62a4.54,4.54,0,0,0,4.36-1.12c1.64,1.31,2.68,1.69,4.47.64a4.21,4.21,0,0,1-4.53,1.23C48.09,63.75,45.57,63.66,45.2,62.62Z"/><path class="cls-5" d="M50.87,76.18a1.26,1.26,0,1,0-1.26,1.25A1.26,1.26,0,0,0,50.87,76.18Z"/><path class="cls-5" d="M50.87,80.52a1.26,1.26,0,1,0-1.26,1.26A1.25,1.25,0,0,0,50.87,80.52Z"/></g></g></svg>