<svg xmlns="http://www.w3.org/2000/svg" xmlns:xlink="http://www.w3.org/1999/xlink" viewBox="0 0 100 100"><defs><style>.cls-1{fill:none;}.cls-2{isolation:isolate;}.cls-3{fill:#0a6e90;}.cls-4{clip-path:url(#clip-path);}.cls-5{fill:#f25a28;}.cls-6{fill:#f5fefb;}.cls-7{fill:#f6f3cf;}.cls-8{fill:#251f21;}.cls-9{fill:#e96332;}.cls-10{fill:#07171b;}.cls-11{fill:#a84720;}.cls-12{fill:#191009;}.cls-13{fill:#fff;}.cls-14{opacity:0.5;mix-blend-mode:screen;}.cls-15{clip-path:url(#clip-path-2);}.cls-16{fill:#e6e6e6;}.cls-17{clip-path:url(#clip-path-3);}.cls-18{clip-path:url(#clip-path-4);}.cls-19{clip-path:url(#clip-path-5);}.cls-20{fill:#351905;}</style><clipPath id="clip-path"><path class="cls-1" d="M90.15,52.26A39.15,39.15,0,1,0,51,91.4,39.14,39.14,0,0,0,90.15,52.26Z"/></clipPath><clipPath id="clip-path-2"><rect class="cls-1" x="38.22" y="51.96" width="5.09" height="12.81"/></clipPath><clipPath id="clip-path-3"><rect class="cls-1" x="56.56" y="51.04" width="5.25" height="13.54"/></clipPath><clipPath id="clip-path-4"><rect class="cls-1" x="36.15" y="52.75" width="4.32" height="11.73"/></clipPath><clipPath id="clip-path-5"><rect class="cls-1" x="53.65" y="51.25" width="5.02" height="12.41"/></clipPath></defs><title>Artboard 1 copyavatar</title><g class="cls-2"><g id="Objects"><path class="cls-3" d="M90.15,52.26A39.15,39.15,0,1,0,51,91.4,39.14,39.14,0,0,0,90.15,52.26Z"/><g class="cls-4"><path class="cls-5" d="M52.33,66.74c-10.1,0-18.28,11-18.28,24.66H70.61C70.61,77.78,62.42,66.74,52.33,66.74Z"/><path class="cls-6" d="M47.45,73.79c1.46,3,5.85,6.4,9.54,0-.22-2.76-2.93-3.46-4.67-3.46C49,70.33,47.45,73.79,47.45,73.79Z"/><path class="cls-7" d="M74.77,64.75a5.33,5.33,0,0,0-1-.56l.31.19A5.1,5.1,0,0,1,74.77,64.75Z"/><path class="cls-7" d="M74.77,64.75a5.1,5.1,0,0,0-.74-.37A8,8,0,0,0,74.77,64.75Z"/><path class="cls-7" d="M30.9,64.19a5.33,5.33,0,0,0-1,.56,5.52,5.52,0,0,1,.73-.37Z"/><path class="cls-7" d="M29.85,64.75a7.29,7.29,0,0,0,.73-.37A5.52,5.52,0,0,0,29.85,64.75Z"/><path class="cls-8" d="M59,44.38a28.63,28.63,0,0,1,14.89-19s8.18,21.33-7.44,26.42Z"/><path class="cls-5" d="M60.69,45.67C65.16,32.32,72.31,30,72.31,30s6.18,12.75-7.4,20.53Z"/><path class="cls-8" d="M45.58,44.38a28.66,28.66,0,0,0-14.9-19S22.5,46.73,38.13,51.82Z"/><path class="cls-5" d="M43.91,45.67C39.44,32.32,32.29,30,32.29,30s-6.18,12.75,7.4,20.53Z"/><path class="cls-6" d="M57,73.79a5.11,5.11,0,0,0-2.26-2.53c.84-1.35,3.63-5,9.9-7,4.63-1.54,8.6-.57,10.13.53C74.76,64.75,70.09,70.72,57,73.79Z"/><path class="cls-6" d="M47.61,73.79a5.11,5.11,0,0,1,2.26-2.53c-.84-1.35-3.63-5-9.89-7-4.64-1.54-8.61-.57-10.14.53C29.84,64.75,34.52,70.72,47.61,73.79Z"/><path class="cls-5" d="M69.45,58.6c0-.22,0-.44,0-.66a17.2,17.2,0,0,0-17.16-17.2h0a17.2,17.2,0,0,0-17.16,17.2c0,.22,0,.44,0,.66a9.48,9.48,0,0,1-4.58,5.78c2-.86,5.25-1.24,9.41-.16,4.81,1.25,9.05,5.29,9.89,7a4.87,4.87,0,0,1,4.86,0c.84-1.75,5.08-5.79,9.9-7,4.15-1.08,7.43-.7,9.4.16A9.52,9.52,0,0,1,69.45,58.6Z"/><path class="cls-5" d="M74,64.38a7.29,7.29,0,0,0,.73.37A5.52,5.52,0,0,0,74,64.38Z"/><path class="cls-5" d="M30.57,64.38a5.52,5.52,0,0,0-.73.37A7.29,7.29,0,0,0,30.57,64.38Z"/><path class="cls-1" d="M40,64.22a23,23,0,0,1,4.26,1.9s0,0,0-.06A16.56,16.56,0,0,0,40,64.22Z"/><path class="cls-9" d="M52.29,40.74Z"/><path class="cls-10" d="M49.87,71.25Z"/><path class="cls-11" d="M52.33,40.74h0Z"/><path class="cls-11" d="M52.33,55.76v-15h0v15Z"/><path class="cls-11" d="M52.29,70.61h0V55.76h0V70.61Z"/><path class="cls-11" d="M49.87,71.25h0a5.16,5.16,0,0,1,2.41-.65h0A5.07,5.07,0,0,0,49.87,71.25Z"/><path class="cls-11" d="M52.29,70.61Z"/><path class="cls-12" d="M53.69,67.87c1.71,0,2.24,1.1,1.19,2.45l-.68.86a2.33,2.33,0,0,1-3.83,0l-.68-.86c-1-1.35-.52-2.45,1.19-2.45Z"/><path class="cls-12" d="M47.05,73.51a5.38,5.38,0,0,0,5.17-1.32c1.94,1.54,3.18,2,5.3.75a5,5,0,0,1-5.37,1.47C50.48,74.85,47.49,74.75,47.05,73.51Z"/><path class="cls-13" d="M42.42,55.37s5.71-1.66,5.58,4.15c0,0-5.58,2-5.58-4.15"/><path class="cls-12" d="M47,57.17a1.39,1.39,0,1,1-1.38-1.39A1.38,1.38,0,0,1,47,57.17Z"/><path class="cls-13" d="M46.5,56.64a.33.33,0,0,1-.33.33.33.33,0,0,1,0-.65A.33.33,0,0,1,46.5,56.64Z"/><path class="cls-13" d="M62,55.37s-5.71-1.66-5.58,4.15c0,0,5.58,2,5.58-4.15"/><path class="cls-12" d="M57.36,57.17a1.39,1.39,0,1,0,1.39-1.39A1.38,1.38,0,0,0,57.36,57.17Z"/><path class="cls-13" d="M57.77,56.52a.32.32,0,0,0,.33.32.32.32,0,0,0,.32-.32.32.32,0,0,0-.32-.33A.33.33,0,0,0,57.77,56.52Z"/><path d="M59.1,76.89c-1-.31-5.7,2.41-5.7,2.41a1.57,1.57,0,0,0-1.17-.5,1.58,1.58,0,0,0-1.17.5S46.31,76.43,45.4,77s-.93,6.15,0,6.7,5.74-2.25,5.74-2.25a1.65,1.65,0,0,0,2.18,0s5,2.91,5.74,2.25S60.05,77.21,59.1,76.89Z"/><g class="cls-14"><g class="cls-15"><polygon class="cls-16" points="38.22 52.46 41.8 64.7 43.31 64.76 39.45 51.95 38.22 52.46"/></g></g><g class="cls-14"><g class="cls-17"><polygon class="cls-16" points="56.56 51.16 60.38 64.5 61.81 64.58 57.95 51.03 56.56 51.16"/></g></g><g class="cls-14"><g class="cls-18"><path class="cls-16" d="M36.94,52.75h0c0,.56-.37,1-.63,1.47a.62.62,0,0,1-.15.2v.67l2.34,8.38c.49.23.53.42,1,.64l.94.37Z"/></g></g><g class="cls-14"><g class="cls-19"><polygon class="cls-16" points="53.65 51.71 57.3 62.92 58.68 63.66 55.09 51.25 53.65 51.71"/></g></g><path class="cls-20" d="M69.59,56c-.12-.15-.32-.12-.42-.49s-1-2.89-2.1-3.47-3.06-1.56-7.94-1.9c-3.77-.09-6.06-.17-6.71-.19h-.19c-.65,0-2.93.1-6.71.19-4.87.34-6.88,1.32-7.93,1.9s-2,3.1-2.1,3.47-.31.34-.43.49a2.42,2.42,0,0,0,.39,1.63,11,11,0,0,0,2.61,6.06c.85,1,3.19,1.46,4.81,1.39,3.59-.61,4.2-1.69,5.76-3.22s2.79-5.69,3-6.16a1,1,0,0,1,.73-.53,1,1,0,0,1,.72.53c.18.47,1.41,4.64,3,6.16s2.17,2.61,5.76,3.22c1.63.07,4-.41,4.81-1.39a11,11,0,0,0,2.61-6.06A2.42,2.42,0,0,0,69.59,56m-19.16.61a13.09,13.09,0,0,1-2.31,4.88,7,7,0,0,1-4.53,2.85c-1.57.2-3.9,0-5-1.26a8.88,8.88,0,0,1-2.16-5.27,17.31,17.31,0,0,1,.13-2.65,4.94,4.94,0,0,1,2.34-2.92,17.13,17.13,0,0,1,7.35-1c3,.2,3.93.68,4.17,1.32a10.8,10.8,0,0,1,0,4m15.62,6.47c-1.08,1.29-3.42,1.46-5,1.26a7,7,0,0,1-4.53-2.85,13.06,13.06,0,0,1-2.3-4.88,10.59,10.59,0,0,1,0-4c.23-.64,1.22-1.12,4.16-1.32a17.13,17.13,0,0,1,7.35,1,4.94,4.94,0,0,1,2.34,2.92,16.1,16.1,0,0,1,.14,2.65,8.89,8.89,0,0,1-2.17,5.27"/></g></g></g></svg>