<svg xmlns="http://www.w3.org/2000/svg" xmlns:xlink="http://www.w3.org/1999/xlink" viewBox="0 0 100 100"><defs><style>.cls-1{fill:none;}.cls-2{fill:#8dd0c7;}.cls-3{clip-path:url(#clip-path);}.cls-4{fill:#d39c5b;}.cls-5{fill:#e2c59b;}.cls-6{fill:#be7447;}.cls-7{fill:#191009;}.cls-8{fill:#fff;}</style><clipPath id="clip-path"><path class="cls-1" d="M84.25,54.49a36,36,0,1,0-36,36A36,36,0,0,0,84.25,54.49Z"/></clipPath></defs><title>Artboard 1 copy 2avatar</title><g id="Objects"><path class="cls-2" d="M84.25,54.49a36,36,0,1,0-36,36A36,36,0,0,0,84.25,54.49Z"/><g class="cls-3"><path class="cls-4" d="M64.86,90.48c.17-1.2.26-6.65.26-7.91,0-10.95-6.78-19.83-15.15-19.83S34.83,71.62,34.83,82.57c0,1.26.09,6.71.27,7.91Z"/><path class="cls-5" d="M42.87,67.9s-4.31,9.91-1.72,13.69,8.72,8.89,8.72,8.89,9.61-6.41,9.75-11.29-2.76-12.75-2.76-12.75"/><path class="cls-6" d="M40.7,66.52c3.06,2.33,3.13,3.71,3.55,7.57.92,7.28,4,7.06,5.72,7.06V67.39S42.3,61.27,38.61,59C38.2,60.65,37.64,64.19,40.7,66.52Z"/><path class="cls-6" d="M61.33,59C57.65,61.27,50,67.39,50,67.39V81.15c1.7,0,4.81.22,5.73-7.06.42-3.86.49-5.24,3.55-7.57S61.75,60.65,61.33,59Z"/><path class="cls-6" d="M58.52,48.43s5.52-5,12.25-2c-1.63,3.64-4.65,6.71-10.58,7"/><path class="cls-7" d="M59,50.08s5.73-3.37,9.19-1.84C67.33,50.11,63,52.92,60,53.08"/><path class="cls-6" d="M41.18,48.11s-5.51-5-12.25-2c1.63,3.64,4.65,6.72,10.59,7"/><path class="cls-7" d="M40.72,49.77S35,46.4,31.53,47.92c.84,1.87,5.17,4.68,8.22,4.84"/><path class="cls-4" d="M60.27,47.41l-3.11-1.55L50,48.77l-7.18-2.91-3.11,1.55s.2,7.87-1.16,11.85c3.2,1,6.7,7.09,8.54,13.4h5.83c1.84-6.31,5.34-12.43,8.54-13.4C60.07,55.28,60.27,47.41,60.27,47.41Z"/><path class="cls-7" d="M51.35,71.83c1.67,0,2.19,1.07,1.16,2.39l-.66.84a2.28,2.28,0,0,1-3.75,0l-.66-.84c-1-1.32-.51-2.39,1.16-2.39Z"/><path class="cls-8" d="M61,60.86s-5-1.46-4.93,3.67c0,0,4.93,1.8,4.93-3.67"/><path class="cls-7" d="M56.85,62.46a1.23,1.23,0,1,0,1.22-1.23A1.22,1.22,0,0,0,56.85,62.46Z"/><path class="cls-8" d="M57.5,62.34a.29.29,0,1,0,.57,0,.29.29,0,0,0-.57,0Z"/><path class="cls-8" d="M39,60.86s5-1.46,4.93,3.67c0,0-4.93,1.8-4.93-3.67"/><path class="cls-7" d="M43.1,62.46a1.23,1.23,0,1,1-1.22-1.23A1.22,1.22,0,0,1,43.1,62.46Z"/><path class="cls-8" d="M42.45,62.34a.29.29,0,1,1-.57,0,.29.29,0,0,1,.57,0Z"/><path d="M56.3,82.23c-.88-.29-5.24,2.22-5.24,2.22A1.45,1.45,0,0,0,50,84a1.46,1.46,0,0,0-1.08.47s-4.36-2.65-5.19-2.16-.86,5.65,0,6.16S49,86.38,49,86.38a1.5,1.5,0,0,0,1,.38,1.46,1.46,0,0,0,1-.38s4.57,2.68,5.28,2.07S57.17,82.52,56.3,82.23Z"/><path class="cls-7" d="M50,76.06s-1.92-.24-2.5,1.12-2,2.82-2.93,2.31A1.44,1.44,0,0,1,45,76.82c-.84-.84-3.15,1.27-1.39,2.93s5.45-.1,6.35-2Z"/><path class="cls-7" d="M50,76.06s1.91-.24,2.49,1.12,2,2.82,2.94,2.31a1.44,1.44,0,0,0-.48-2.67c.84-.84,3.15,1.27,1.39,2.93s-5.45-.1-6.34-2Z"/><path d="M42.11,58.08a5.51,5.51,0,1,0,5.52,5.51A5.51,5.51,0,0,0,42.11,58.08Zm0,10.09a4.58,4.58,0,1,1,4.59-4.58A4.58,4.58,0,0,1,42.11,68.17Z"/><rect x="34.74" y="63.04" width="2.7" height="1.1"/><rect x="34.74" y="63.59" width="1.02" height="21.99"/></g><path class="cls-4" d="M60,48.26s1.66-5.88,4.34-6.77,6.15-.88,11.87-.31a19.57,19.57,0,0,0,18.06-9c4.42-7.09.59-4.59-.57-2.6S87.1,37.36,82.6,38.31s-9.24.31-9.73-1.53,5.68-10,8.49-11.67,3.42-4.75-.43-1.65-7.57,7.15-11.49,14c-1.61.77-5.39,1.81-6.93.83s.4-10.17,3.56-13.35,6-4.94,8.81-4.64,2.31-2.23-1.3-1.45-11.6.59-14,13.56c-.64,3.39.34,8.53.34,8.53L57,46.28Z"/><path class="cls-4" d="M40,48.3s-1.66-5.87-4.34-6.76-6.15-.88-11.87-.31a19.56,19.56,0,0,1-18.06-9c-4.42-7.08-.59-4.58.57-2.59S12.9,37.4,17.4,38.36s9.24.31,9.73-1.53-5.68-10-8.49-11.67-3.42-4.75.43-1.65,7.57,7.15,11.49,14c1.61.78,5.39,1.82,6.93.84S37.09,28.19,33.93,25s-6-4.94-8.81-4.64-2.31-2.24,1.3-1.45,11.6.59,14,13.56c.64,3.38-.34,8.53-.34,8.53L43,46.33Z"/></g></svg>